<svg width="40" height="40" viewBox="0 0 40 40" fill="none" xmlns="http://www.w3.org/2000/svg">
  <g clip-path="url(#clip0_23_2955)">
    <path d="M30.9676 34.1935H37.4192V37.8749H30.9676V34.1935ZM9.6773 14.1935C6.47601 14.1935 3.87085 11.5883 3.87085 8.38702C3.87085 5.18573 6.47601 2.58057 9.6773 2.58057C12.8786 2.58057 15.4838 5.18573 15.4838 8.38702C15.4838 11.5883 12.8786 14.1935 9.6773 14.1935ZM9.6773 7.0967C8.96569 7.0967 8.38698 7.6754 8.38698 8.38702C8.38698 9.09863 8.96569 9.67734 9.6773 9.67734C10.3889 9.67734 10.9676 9.09863 10.9676 8.38702C10.9676 7.6754 10.3889 7.0967 9.6773 7.0967Z" fill="#ED801C"/>
    <path d="M21.9355 19.3548V9.67742C21.9355 4.34129 17.5942 0 12.2581 0H9.67742C5.0529 0 1.29032 3.76258 1.29032 8.3871C1.29032 13.0116 5.0529 16.7742 9.67742 16.7742C12.6671 16.7742 15.289 15.1974 16.7742 12.8368V19.3548H0V40H40V19.3548H21.9355ZM27.7419 20.6452H31.6129V26.6981L30.9677 26.3755L29.6774 27.0206L28.3871 26.3755L27.7419 26.6981V20.6452ZM9.67742 15.4839C5.76452 15.4839 2.58065 12.3 2.58065 8.3871C2.58065 4.47419 5.76452 1.29032 9.67742 1.29032C13.5903 1.29032 16.7742 4.47419 16.7742 8.3871C16.7742 12.3 13.5903 15.4839 9.67742 15.4839ZM18.0645 8.3871C18.0645 5.61935 16.711 3.16774 14.6374 1.63935C18.1058 2.66774 20.6452 5.87935 20.6452 9.67742V19.3548H18.0645V8.3871ZM1.29032 20.6452H19.3548V38.7097H1.29032V20.6452ZM38.7097 38.7097H20.6452V20.6452H26.4516V28.7858L28.3871 27.8181L29.6774 28.4632L30.9677 27.8181L32.9032 28.7858V20.6452H38.7097V38.7097Z" fill="#2F3A3F"/>
    <path d="M11.6129 33.1704L12.4471 34.0046L13.3594 33.0923L10.9677 30.7007L8.57612 33.0923L9.48838 34.0046L10.3226 33.1704V36.1291H5.16129V33.1704L5.99548 34.0046L6.90774 33.0923L4.51612 30.7007L2.12451 33.0923L3.03677 34.0046L3.87096 33.1704V36.1291H2.58064V37.4194H12.9032V36.1291H11.6129V33.1704Z" fill="#2F3A3F"/>
  </g>
  <defs>
    <clipPath id="clip0_23_2955">
      <rect width="40" height="40" fill="white"/>
    </clipPath>
  </defs>
</svg>
